<mxfile host="app.diagrams.net" modified="2024-04-01T13:20:18.469Z" agent="Mozilla/5.0 (Windows NT 10.0; Win64; x64) AppleWebKit/537.36 (KHTML, like Gecko) Chrome/123.0.0.0 Safari/537.36" version="24.2.1" etag="2VBqQRzT-XEqefRWerNT" type="github">
  <diagram name="Page-1" id="2q1nWeFOjrHke_GeI0AT">
    <mxGraphModel>
      <root>
        <mxCell id="0" />
        <mxCell id="1" parent="0" />
      </root>
    </mxGraphModel>
  </diagram>
</mxfile>
